<svg xmlns="http://www.w3.org/2000/svg" width="107.25" height="107.25" viewBox="0 0 107.25 107.25">
  <defs>
    <style>
      .cls-1 {
        fill: #c2cfd7;
        fill-rule: evenodd;
      }
    </style>
  </defs>
  <path id="Dribble" class="cls-1" d="M982.4,2938.05a53.656,53.656,0,0,0-3.127-10.07,52.725,52.725,0,0,0-4.95-9.11,53.274,53.274,0,0,0-6.535-7.93,53.658,53.658,0,0,0-75.85,0,54.885,54.885,0,0,0-6.538,7.93,52.663,52.663,0,0,0-4.937,9.11,53.467,53.467,0,0,0-3.137,10.07,54.2,54.2,0,0,0,0,21.6,53.337,53.337,0,0,0,3.137,10.08,53.876,53.876,0,0,0,4.937,9.12,54.8,54.8,0,0,0,6.538,7.92,53.673,53.673,0,0,0,75.85,0,53.194,53.194,0,0,0,6.535-7.92A53.813,53.813,0,0,0,982.4,2938.05Zm-6.753,10.34c-0.665-.13-16.161-3.47-31.9-1.49-0.322-.78-0.655-1.58-0.988-2.37-0.953-2.24-1.981-4.46-3.043-6.63,18.083-7.39,25.417-18.01,25.515-18.13A45.622,45.622,0,0,1,975.646,2948.39Zm-15.53-33.9c-0.119.17-6.64,10.1-23.928,16.58a230.656,230.656,0,0,0-17.115-26.72A45.756,45.756,0,0,1,960.116,2914.49Zm-41.222-10.11v0.02s-0.06.01-.144,0.02A0.439,0.439,0,0,0,918.894,2904.38Zm-8.565,3.06a276.531,276.531,0,0,1,17,26.39,169.179,169.179,0,0,1-42.284,5.58A45.87,45.87,0,0,1,910.329,2907.44Zm-26.266,41.41c0-.49.025-0.97,0.035-1.44a168.17,168.17,0,0,0,47.021-6.53c1.314,2.57,2.576,5.18,3.723,7.79-0.61.17-1.206,0.35-1.812,0.54-24.717,7.98-37.24,30.23-37.24,30.23l0.011,0.02A45.667,45.667,0,0,1,884.063,2948.85Zm45.8,45.8a45.64,45.64,0,0,1-29.176-10.49c0.6,0.49,1.024.8,1.024,0.8s8.779-19.14,35.942-28.62c0.106-.03.2-0.07,0.3-0.09a188.945,188.945,0,0,1,9.778,34.78A45.568,45.568,0,0,1,929.867,2994.65Zm25.586-7.82a198.732,198.732,0,0,0-8.911-32.71,66.6,66.6,0,0,1,28.544,2.01A45.742,45.742,0,0,1,955.453,2986.83Z" transform="translate(-876.25 -2895.22)"/>
</svg>
