<svg xmlns="http://www.w3.org/2000/svg" width="108.06" height="97.09" viewBox="0 0 108.06 97.09">
  <defs>
    <style>
      .cls-1 {
        fill: #c2cfd7;
        fill-rule: evenodd;
      }
    </style>
  </defs>
  <path id="Google_" data-name="Google " class="cls-1" d="M1248.89,2930.84h-16.3v-16.28a2.264,2.264,0,0,0-2.26-2.26h-4.64a2.249,2.249,0,0,0-2.25,2.26v16.28h-16.29a2.279,2.279,0,0,0-2.27,2.26v4.64a2.273,2.273,0,0,0,2.27,2.26h16.29v16.3a2.23,2.23,0,0,0,2.25,2.23h4.64a2.245,2.245,0,0,0,2.26-2.23V2940h16.3a2.262,2.262,0,0,0,2.25-2.26v-4.64A2.268,2.268,0,0,0,1248.89,2930.84Zm-54.76,14.29c-3.43-2.43-6.55-5.99-6.6-7.08,0-1.99.17-2.95,4.64-6.41,5.77-4.55,8.95-10.48,8.95-16.76a22.22,22.22,0,0,0-4.71-14.3h2.3a2.384,2.384,0,0,0,1.33-.42l6.42-4.67a2.251,2.251,0,0,0-1.33-4.07h-28.66a28.761,28.761,0,0,0-9.46,1.64c-10.45,3.6-17.75,12.49-17.75,21.64,0,12.94,10.03,22.76,23.44,23.08a11.7,11.7,0,0,0-.4,3.01,11.273,11.273,0,0,0,1.55,5.71h-0.37c-12.78,0-24.33,6.28-28.69,15.62a16.93,16.93,0,0,0-1.72,7.28,13.752,13.752,0,0,0,1.79,6.78c2.74,4.92,8.66,8.73,16.65,10.75a53.38,53.38,0,0,0,13.16,1.57,41.892,41.892,0,0,0,11.71-1.58c11.37-3.3,18.72-11.67,18.72-21.33C1205.1,2956.33,1202.12,2950.78,1194.13,2945.13Zm-36.21,21.22c0-6.75,8.55-12.67,18.31-12.67h0.27a22.38,22.38,0,0,1,6.15.94c0.68,0.46,1.31.9,1.94,1.33,4.51,3.08,7.49,5.11,8.33,8.38a10.291,10.291,0,0,1,.29,2.44c0,8.38-6.25,12.64-18.61,12.64C1165.24,2979.41,1157.92,2973.68,1157.92,2966.35Zm8.87-63.7a7.509,7.509,0,0,1,5.78-2.66h0.25c6.34,0.19,12.39,7.26,13.51,15.75,0.63,4.75-.44,9.22-2.82,11.96a7.521,7.521,0,0,1-5.83,2.66h-0.12c-6.19-.19-12.39-7.53-13.51-16.02C1163.43,2909.61,1164.44,2905.34,1166.79,2902.65Z" transform="translate(-1143.06 -2891.41)"/>
</svg>
