<?xml version="1.0" encoding="utf-8"?>
<!-- Generator: Adobe Illustrator 24.1.0, SVG Export Plug-In . SVG Version: 6.00 Build 0)  -->
<svg version="1.1" id="Layer_1" xmlns="http://www.w3.org/2000/svg" xmlns:xlink="http://www.w3.org/1999/xlink" x="0px" y="0px"
	 viewBox="0 0 384 384" style="enable-background:new 0 0 384 384;" xml:space="preserve">
<style type="text/css">
	.st0{fill:#FF5672;}
</style>
<path class="st0" d="M362.7,233H21.3C9.6,233,0,249.9,0,270.7v75.5C0,367.1,9.6,384,21.3,384h341.3c11.8,0,21.3-16.9,21.3-37.7
	v-75.5C384,249.9,374.4,233,362.7,233z"/>
<path class="st0" d="M362.7,0H21.3C9.6,0,0,16.9,0,37.7v75.5C0,134.1,9.6,151,21.3,151h341.3c11.8,0,21.3-16.9,21.3-37.7V37.7
	C384,16.9,374.4,0,362.7,0z"/>
</svg>
