<svg xmlns="http://www.w3.org/2000/svg" width="106.875" height="86.85" viewBox="0 0 106.875 86.85">
  <defs>
    <style>
      .cls-1 {
        fill: #c2cfd7;
        fill-rule: evenodd;
      }
    </style>
  </defs>
  <path id="Tweeter" class="cls-1" d="M757.249,2918.8a43.172,43.172,0,0,1-12.583,3.45,21.969,21.969,0,0,0,9.638-12.13,44.216,44.216,0,0,1-13.922,5.34,21.925,21.925,0,0,0-37.93,14.99,22.375,22.375,0,0,0,.572,4.99,62.1,62.1,0,0,1-45.194-22.92,21.965,21.965,0,0,0,6.788,29.29,21.855,21.855,0,0,1-9.936-2.75v0.28a21.951,21.951,0,0,0,17.592,21.5,21.8,21.8,0,0,1-9.9.37,21.943,21.943,0,0,0,20.471,15.24,44.02,44.02,0,0,1-27.22,9.37,45.174,45.174,0,0,1-5.238-.3A62.178,62.178,0,0,0,684,2995.37c40.328,0,62.384-33.41,62.384-62.38,0-.94-0.025-1.89-0.074-2.83A44.633,44.633,0,0,0,757.249,2918.8Z" transform="translate(-650.375 -2908.53)"/>
</svg>
