<svg xmlns="http://www.w3.org/2000/svg" width="106.38" height="104.06" viewBox="0 0 106.38 104.06">
  <defs>
    <style>
      .cls-1 {
        fill: #c2cfd7;
        fill-rule: evenodd;
      }
    </style>
  </defs>
  <path id="Youtube" class="cls-1" d="M1478.59,2937.5h-67.53a19.448,19.448,0,0,0-19.44,19.44v15.63a19.438,19.438,0,0,0,19.44,19.42h67.53a19.42,19.42,0,0,0,19.42-19.42v-15.63A19.431,19.431,0,0,0,1478.59,2937.5Zm-53.35,12.17h-6.27v31.19h-6.06v-31.19h-6.27v-5.31h18.6v5.31Zm17.74,31.19h-5.38v-2.94a11.94,11.94,0,0,1-3.1,2.48,6.715,6.715,0,0,1-3.14.85,3.316,3.316,0,0,1-2.8-1.2,5.68,5.68,0,0,1-.96-3.61v-22.52h5.39v20.66a2.176,2.176,0,0,0,.34,1.37,1.3,1.3,0,0,0,1.1.45,3.04,3.04,0,0,0,1.5-.56,7.156,7.156,0,0,0,1.67-1.46v-20.46h5.38v26.94Zm19.53-5.57a6.68,6.68,0,0,1-1.27,4.39,4.405,4.405,0,0,1-3.64,1.52,6.429,6.429,0,0,1-2.82-.58,6.8,6.8,0,0,1-2.3-1.84v2.08h-5.46v-36.5h5.46v11.75a8.064,8.064,0,0,1,2.3-1.87,5.386,5.386,0,0,1,2.48-.64,4.686,4.686,0,0,1,3.91,1.72,8.079,8.079,0,0,1,1.34,5.04v14.93Zm18.66-7.25h-10.28v5.08a5.847,5.847,0,0,0,.51,2.94,2.057,2.057,0,0,0,1.83.83,2.2,2.2,0,0,0,1.87-.71,5.631,5.631,0,0,0,.54-3.06v-1.24h5.53v1.39c0,2.74-.67,4.83-2.03,6.24-1.33,1.39-3.35,2.08-6.03,2.08a7.348,7.348,0,0,1-5.7-2.23,8.524,8.524,0,0,1-2.07-6.09v-12.1a7.647,7.647,0,0,1,2.28-5.71,8.1,8.1,0,0,1,5.88-2.2,7.486,7.486,0,0,1,5.69,2.05,8.012,8.012,0,0,1,1.98,5.86v6.87Zm-7.89-10.07a2.12,2.12,0,0,0-1.84.75,3.887,3.887,0,0,0-.55,2.41v2.72h4.75v-2.72a3.948,3.948,0,0,0-.56-2.41A2.077,2.077,0,0,0,1473.28,2957.97Zm-18.56-.09a2.653,2.653,0,0,0-1.13.25,3.834,3.834,0,0,0-1.11.83v16.78a4.253,4.253,0,0,0,1.26.95,2.981,2.981,0,0,0,1.31.29,1.725,1.725,0,0,0,1.45-.57,2.979,2.979,0,0,0,.46-1.85v-13.91a3.215,3.215,0,0,0-.56-2.07A2.086,2.086,0,0,0,1454.72,2957.88Zm-34.82-29.74h6.82v-16.68l7.95-23.53h-6.94l-4.22,16.08h-0.44l-4.42-16.08h-6.87l8.12,24.29v15.92Zm24,0.75a9.293,9.293,0,0,0,6.5-2.16,7.772,7.772,0,0,0,2.35-5.97v-15.32a7.147,7.147,0,0,0-2.4-5.55,8.849,8.849,0,0,0-6.17-2.16,9.962,9.962,0,0,0-6.58,2.05,6.757,6.757,0,0,0-2.44,5.48v15.37a7.877,7.877,0,0,0,2.38,6.02A8.944,8.944,0,0,0,1443.9,2928.89Zm-2.51-23.86a2.078,2.078,0,0,1,.68-1.57,2.724,2.724,0,0,1,1.82-.58,2.971,2.971,0,0,1,1.94.58,1.971,1.971,0,0,1,.74,1.57v16.17a2.45,2.45,0,0,1-.72,1.88,2.788,2.788,0,0,1-1.96.66,2.422,2.422,0,0,1-1.85-.66,2.57,2.57,0,0,1-.65-1.88v-16.17Zm20.51,23.55a7.7,7.7,0,0,0,3.51-.94,12.936,12.936,0,0,0,3.48-2.78v3.28h6.07v-29.65h-6.07v22.52a7.664,7.664,0,0,1-1.86,1.58,3.512,3.512,0,0,1-1.69.63,1.488,1.488,0,0,1-1.24-.47,2.465,2.465,0,0,1-.39-1.53v-22.73h-6.04v24.78a6.161,6.161,0,0,0,1.06,3.96A3.812,3.812,0,0,0,1461.9,2928.58Z" transform="translate(-1391.62 -2887.94)"/>
</svg>
